. 
  
http://www.torrenting.com/        :     Greatest Movie Tracker on The Net!!!
 
http://www.Torrenting.com          :     Once & For all ;)


               www . Torrenting . Com 

(((((((((((((= Enjoy No RAR releases =))))))))))))))))))))


...................................NFO:....................................

.                                                                                                     
       
     
     
       
       
     
     
                                         
                                         
                EXVID                    
                                         
         
                                         
         Filled the Archives             
                                         
         
                                         
                With:                    
                                         
         
                                         
                                    
     E240                           
                                    
     SP               (C) 2009      
                                         
     
     
     
                                                                                  
                                                                                   
             How.the.West.Was.Won.1962.WS.DVDRip.XviD-EXViD                         
                                                                                   
                                                                                  
     
                                                                                               
EXViD aims to iNTERNAL those releases which have been lost in the archives.
EXViD aims to PRE non-internal releases which have poor sources and are likely skipped by others.
 
http://www.imdb.com/title/tt0056085/
Subtitles: EN HI, BG, NL, FR, IW, IT, IT HI
Date: 2011.08

Directors: John Ford, Henry Hathaway, George Marshall, Richard Thorpe

Genres: Adventure | Drama | Romance | Western

Plot:
The fifty years of American westward expansion between the 1830s and 1880s are viewed through
the experiences of the Prescott and Rawlings families, as they migrate by the Erie Canal,
continue over the prairies from St. Louis during the California gold rush, suffer through the
Civil War, and finally help build the railroads on the plains and bring law and justice to the
frontier. Along the way they meet mountain men, journey by wagon train, deal with Native
Americans, and face outlaws in the southwest. 

Cast:
Carroll Baker 	 ... 	 Eve Prescott
Lee J. Cobb 	 ... 	 Marshal Lou Ramsey
Henry Fonda 	 ... 	 Jethro Stuart
Carolyn Jones 	 ... 	 Julie Rawlings
Karl Malden 	 ... 	 Zebulon Prescott
Gregory Peck 	 ... 	 Cleve Van Valen
George Peppard 	 ... 	 Zeb Rawlings
Robert Preston 	 ... 	 Roger Morgan
Debbie Reynolds 	 ... 	 Lilith Prescott
James Stewart 	 ... 	 Linus Rawlings
Eli Wallach 	 ... 	 Charlie Gant
John Wayne 	 ... 	 Gen. William Tecumseh Sherman
Richard Widmark 	 ... 	 Mike King
Brigid Bazlen 	 ... 	 Dora Hawkins
Walter Brennan 	 ... 	 Col. Jeb Hawkins

Stats:
Format                           : AVI
Format/Info                      : Audio Video Interleave
File size                        : 1.37 GiB
Duration                         : 2h 37mn
Overall bit rate                 : 1 242 Kbps
Writing application              : Nandub v1.0rc2
Writing library                  : Nandub build 1852/release

Video
ID                               : 0
Format                           : MPEG-4 Visual
Format profile                   : Advanced Simple@L5
Format settings, BVOP            : 2
Format settings, QPel            : No
Format settings, GMC             : No warppoints
Format settings, Matrix          : Default (H.263)
Codec ID                         : XVID
Codec ID/Hint                    : XviD
Duration                         : 2h 37mn
Bit rate                         : 1 106 Kbps
Width                            : 640 pixels
Height                           : 224 pixels
Display aspect ratio             : 2.857
Frame rate                       : 25.000 fps
Color space                      : YUV
Chroma subsampling               : 4:2:0
Bit depth                        : 8 bits
Scan type                        : Progressive
Compression mode                 : Lossy
Bits/(Pixel*Frame)               : 0.309
Stream size                      : 1.22 GiB (89%)
Writing library                  : XviD 64

Audio
ID                               : 1
Format                           : MPEG Audio
Format version                   : Version 1
Format profile                   : Layer 3
Mode                             : Joint stereo
Mode extension                   : MS Stereo
Codec ID                         : 55
Codec ID/Hint                    : MP3
Duration                         : 2h 37mn
Bit rate mode                    : Variable
Bit rate                         : 121 Kbps
Nominal bit rate                 : 128 Kbps
Channel(s)                       : 2 channels
Sampling rate                    : 48.0 KHz
Compression mode                 : Lossy
Stream size                      : 137 MiB (9%)
Alignment                        : Aligned on interleaves
Interleave, duration             : 24 ms (0.60 video frame)
Interleave, preload duration     : 421 ms
Writing library                  : LAME3.98r
Encoding settings                : -m j -V 4 -q 3 -lowpass 17 --abr 128




Release notes:
The 2001 Focus rip is from the older 2.40:1 DVD. Our rip is from the 2008 DVD with 2.89:1 AR:
 
http://www.dvdcompare.net/comparisons/film.php?fid=8155

enjoy!

Looking for:
75TB+ Archives
DUTCH/FLEMiSH Archives
                                                                                                    
Greets: CRBS EPiSODE FiCO FLS iLS KLASSiGER LiPSYNC MADE NODLABS RUNNER SPRiNTER      
   

                                                                    ASCII DONE BY XX^NFO 2oo9